<svg data-v-423bf9ae="" xmlns="http://www.w3.org/2000/svg" viewBox="0 0 579.234006104327 60" class="font"><!----><!----><defs data-v-423bf9ae=""><linearGradient data-v-423bf9ae="" gradientTransform="rotate(25)" id="ad59e429-67f0-40f5-abd0-f474fd2eb43d" x1="0%" y1="0%" x2="100%" y2="0%"><stop data-v-423bf9ae="" offset="0%" style="stop-color: rgb(1, 100, 139); stop-opacity: 1;"></stop><stop data-v-423bf9ae="" offset="100%" style="stop-color: rgb(91, 208, 164); stop-opacity: 1;"></stop></linearGradient></defs><g data-v-423bf9ae="" id="c4da4e46-58da-43a9-bf79-d1e62449d2e6" fill="url(#ad59e429-67f0-40f5-abd0-f474fd2eb43d)" transform="matrix(4.255319033810256,0,0,4.255319033810256,-0.8936223957641118,-3.021276482300685)"><path d="M5.29 3.77C4.82 3.44 4.26 3.37 3.71 3.37C1.78 3.37 0.21 4.72 0.21 6.87C0.21 9.03 1.55 10.35 3.71 10.35C4.56 10.35 5.46 10.78 5.46 11.73C5.46 12.68 4.69 13.22 3.71 13.22C2.73 13.22 1.90 12.63 1.90 11.73L0.21 11.73C0.21 13.59 1.71 14.81 3.71 14.81C5.71 14.81 7.17 13.64 7.17 11.73C7.17 10.85 6.89 10.02 5.74 9.45C6.87 8.93 7.20 7.73 7.20 6.87C7.20 6.12 7 5.43 6.47 4.83L7.24 3.85L5.98 2.90ZM3.71 4.93C4.69 4.93 5.50 5.68 5.50 6.87C5.50 8.06 4.69 8.79 3.71 8.79C2.72 8.79 1.90 8.08 1.90 6.87C1.90 5.67 2.72 4.93 3.71 4.93ZM15.08 10.50L15.08 6.87C15.08 4.70 13.78 3.49 12.15 3.49C11.28 3.49 10.58 3.84 9.88 4.52L9.77 3.58L8.25 3.58L8.25 10.50L9.94 10.50L9.94 6.97C9.94 5.92 10.65 5.04 11.70 5.04C12.80 5.04 13.37 5.84 13.37 6.89L13.37 10.50ZM21.97 4.55C21.57 3.86 20.69 3.43 19.77 3.43C17.75 3.42 16.17 4.66 16.17 7.04C16.17 9.46 17.68 10.72 19.73 10.71C20.50 10.70 21.57 10.30 21.97 9.49L22.05 10.50L23.66 10.50L23.66 3.60L22.02 3.60ZM19.92 4.96C22.61 4.96 22.61 9.14 19.92 9.14C18.79 9.14 17.88 8.36 17.88 7.04C17.88 5.73 18.79 4.96 19.92 4.96ZM30.52 4.55C30.13 3.86 29.25 3.43 28.32 3.43C26.31 3.42 24.72 4.66 24.72 7.04C24.72 9.46 26.24 10.72 28.28 10.71C29.05 10.70 30.13 10.30 30.52 9.49L30.60 10.50L32.21 10.50L32.21 3.60L30.58 3.60ZM28.48 4.96C31.16 4.96 31.16 9.14 28.48 9.14C27.34 9.14 26.43 8.36 26.43 7.04C26.43 5.73 27.34 4.96 28.48 4.96ZM39.12 4.31C38.32 3.61 37.51 3.40 36.43 3.40C35.17 3.40 33.52 3.96 33.52 5.56C33.52 7.13 35.07 7.60 36.37 7.70C37.35 7.76 37.74 7.95 37.74 8.43C37.74 8.93 37.14 9.27 36.50 9.25C35.73 9.24 34.61 8.83 34.12 8.29L33.28 9.51C34.29 10.56 35.38 10.74 36.47 10.74C38.44 10.74 39.44 9.69 39.44 8.47C39.44 6.64 37.79 6.34 36.48 6.26C35.60 6.20 35.20 5.95 35.20 5.50C35.20 5.07 35.64 4.82 36.46 4.82C37.11 4.82 37.67 4.97 38.16 5.43ZM40.57 3.60L40.57 7.22C40.57 9.37 41.78 10.61 43.43 10.61C44.39 10.61 45.05 10.28 45.77 9.58L45.88 10.51L47.40 10.51L47.40 3.60L45.71 3.60L45.71 7.13C45.71 8.18 45.00 9.06 43.95 9.06C42.85 9.06 42.28 8.26 42.28 7.21L42.28 3.60ZM52.26 5.03C53.34 5.03 54.26 5.84 54.26 7.04C54.26 8.29 53.34 9.07 52.26 9.07C51.17 9.07 50.30 8.25 50.30 7.04C50.30 5.80 51.17 5.03 52.26 5.03ZM54.38 0.71L54.38 4.54C53.97 3.82 52.84 3.43 52.11 3.43C50.09 3.43 48.59 4.66 48.59 7.04C48.59 9.31 50.12 10.65 52.15 10.65C52.99 10.65 53.84 10.37 54.38 9.55L54.49 10.50L56.08 10.50L56.08 0.71ZM63.03 4.31C62.23 3.61 61.42 3.40 60.34 3.40C59.08 3.40 57.43 3.96 57.43 5.56C57.43 7.13 58.98 7.60 60.28 7.70C61.26 7.76 61.66 7.95 61.66 8.43C61.66 8.93 61.05 9.27 60.41 9.25C59.64 9.24 58.52 8.83 58.03 8.29L57.19 9.51C58.20 10.56 59.29 10.74 60.38 10.74C62.36 10.74 63.35 9.69 63.35 8.47C63.35 6.64 61.70 6.34 60.40 6.26C59.51 6.20 59.11 5.95 59.11 5.50C59.11 5.07 59.56 4.82 60.37 4.82C61.03 4.82 61.59 4.97 62.08 5.43ZM69.29 3.58L67.79 8.78L66.21 3.58L64.30 3.58L66.72 10.53L68.71 10.53L69.43 8.48L70.04 6.17L70.66 8.48L71.37 10.53L73.36 10.53L75.77 3.58L73.88 3.58L72.30 8.78L70.78 3.58ZM82.63 4.55C82.24 3.86 81.35 3.43 80.43 3.43C78.41 3.42 76.83 4.66 76.83 7.04C76.83 9.46 78.34 10.72 80.39 10.71C81.16 10.70 82.24 10.30 82.63 9.49L82.71 10.50L84.32 10.50L84.32 3.60L82.68 3.60ZM80.58 4.96C83.27 4.96 83.27 9.14 80.58 9.14C79.45 9.14 78.54 8.36 78.54 7.04C78.54 5.73 79.45 4.96 80.58 4.96ZM90.69 8.50C90.27 8.92 89.73 9.07 89.18 9.07C88.12 9.07 87.22 8.37 87.22 7.06C87.22 5.85 88.06 5.01 89.21 5.01C89.68 5.01 90.19 5.19 90.59 5.56L91.67 4.42C90.92 3.68 90.16 3.40 89.18 3.40C87.18 3.40 85.51 4.61 85.51 7.06C85.51 9.51 87.18 10.71 89.18 10.71C90.20 10.71 91.04 10.40 91.84 9.62ZM98.01 4.55C97.62 3.86 96.74 3.43 95.82 3.43C93.80 3.42 92.22 4.66 92.22 7.04C92.22 9.46 93.73 10.72 95.77 10.71C96.54 10.70 97.62 10.30 98.01 9.49L98.10 10.50L99.71 10.50L99.71 3.60L98.07 3.60ZM95.97 4.96C98.66 4.96 98.66 9.14 95.97 9.14C94.84 9.14 93.93 8.36 93.93 7.04C93.93 5.73 94.84 4.96 95.97 4.96ZM107.45 10.50L107.45 6.80C107.45 5.89 108.02 5.10 108.95 5.10C109.87 5.10 110.25 5.87 110.25 6.78L110.25 10.50L111.96 10.50L111.96 6.78C111.96 4.70 110.99 3.50 109.03 3.50C108.14 3.50 107.34 3.78 106.72 4.76C106.33 3.81 105.50 3.47 104.68 3.47C104.02 3.47 103.22 3.72 102.86 4.42L102.73 3.58L101.15 3.58L101.15 10.50L102.86 10.50L102.86 6.80C102.86 5.89 103.40 5.07 104.33 5.07C105.27 5.07 105.74 5.89 105.74 6.80L105.74 10.50ZM117.38 9.02C116.21 9.02 115.42 8.13 115.42 7.06C115.42 5.98 116.14 5.10 117.38 5.10C118.61 5.10 119.34 5.98 119.34 7.06C119.34 8.13 118.54 9.02 117.38 9.02ZM115.26 13.38L115.26 9.69C115.75 10.44 116.83 10.67 117.56 10.67C119.77 10.67 121.04 9.07 121.04 7.06C121.04 5.03 119.63 3.44 117.50 3.44C116.72 3.44 115.79 3.78 115.26 4.55L115.15 3.60L113.55 3.60L113.55 13.38ZM122.21 3.60L122.21 7.22C122.21 9.37 123.41 10.61 125.06 10.61C126.03 10.61 126.69 10.28 127.40 9.58L127.51 10.51L129.04 10.51L129.04 3.60L127.34 3.60L127.34 7.13C127.34 8.18 126.63 9.06 125.58 9.06C124.49 9.06 123.91 8.26 123.91 7.21L123.91 3.60ZM136.01 4.31C135.21 3.61 134.40 3.40 133.32 3.40C132.06 3.40 130.41 3.96 130.41 5.56C130.41 7.13 131.96 7.60 133.27 7.70C134.25 7.76 134.64 7.95 134.64 8.43C134.64 8.93 134.04 9.27 133.39 9.25C132.62 9.24 131.50 8.83 131.01 8.29L130.17 9.51C131.18 10.56 132.27 10.74 133.36 10.74C135.34 10.74 136.33 9.69 136.33 8.47C136.33 6.64 134.68 6.34 133.38 6.26C132.50 6.20 132.09 5.95 132.09 5.50C132.09 5.07 132.54 4.82 133.35 4.82C134.01 4.82 134.57 4.97 135.06 5.43Z"></path></g><!----><!----></svg>